<?xml version="1.0" encoding="utf-8"?>
<!-- Generator: Adobe Illustrator 23.0.1, SVG Export Plug-In . SVG Version: 6.00 Build 0)  -->
<svg version="1.1"
	 id="svg66" inkscape:version="0.92.4 (5da689c313, 2019-01-14)" sodipodi:docname="GHSPend.svg" xmlns:cc="http://creativecommons.org/ns#" xmlns:dc="http://purl.org/dc/elements/1.1/" xmlns:inkscape="http://www.inkscape.org/namespaces/inkscape" xmlns:rdf="http://www.w3.org/1999/02/22-rdf-syntax-ns#" xmlns:sodipodi="http://sodipodi.sourceforge.net/DTD/sodipodi-0.dtd" xmlns:svg="http://www.w3.org/2000/svg"
	 xmlns="http://www.w3.org/2000/svg" xmlns:xlink="http://www.w3.org/1999/xlink" x="0px" y="0px" viewBox="0 0 247.5 508.3"
	 style="enable-background:new 0 0 247.5 508.3;" xml:space="preserve">
<style type="text/css">
	.st0{font-family:'ArialMT';}
	.st1{font-size:13.3333px;}
	.st2{fill:none;stroke:#000000;stroke-width:2.5;stroke-linecap:round;stroke-linejoin:round;stroke-miterlimit:10;}
	.st3{fill:none;stroke:#000000;stroke-width:2.5;stroke-linejoin:round;stroke-miterlimit:10;stroke-dasharray:6.5,4;}
	.st4{fill:#D8D8D8;stroke:#000000;stroke-width:2;stroke-linecap:round;stroke-linejoin:round;stroke-miterlimit:10;}
	.st5{fill:none;stroke:#000000;stroke-width:5;stroke-linecap:round;stroke-linejoin:round;stroke-miterlimit:10;}
	.st6{fill:none;stroke:#000000;stroke-width:2.5;stroke-linejoin:round;stroke-miterlimit:10;stroke-dasharray:10.5,8;}
	.st7{fill:none;}
</style>
<sodipodi:namedview  bordercolor="#666666" borderopacity="1" gridtolerance="10" guidetolerance="10" id="namedview68" inkscape:current-layer="svg66" inkscape:cx="86.580847" inkscape:cy="255.84151" inkscape:pageopacity="0" inkscape:pageshadow="2" inkscape:snap-global="false" inkscape:window-height="745" inkscape:window-maximized="1" inkscape:window-width="1366" inkscape:window-x="-8" inkscape:window-y="-8" inkscape:zoom="1.69163" objecttolerance="10" pagecolor="#ffffff" showgrid="false">
	</sodipodi:namedview>
<g>
	<g id="g64" transform="translate(-316.01044,6.1973014)">
		<text transform="matrix(1 0 0 1 409.1489 166.5857)" class="st0 st1">$l, m_b$</text>
		<text transform="matrix(1 0 0 1 453.1011 410.8463)" class="st0 st1">$m_p$</text>
		<text transform="matrix(1 0 0 1 489.0122 375.6638)" class="st0 st1">$R$</text>
		<g id="g62" transform="translate(0,-8)">
			<path id="path48" inkscape:connector-curvature="0" class="st2" d="M525.7,380.1c0,33.2-26.9,60.2-60.2,60.2
				s-60.2-26.9-60.2-60.2s26.9-60.2,60.2-60.2S525.7,346.9,525.7,380.1z"/>
			<path id="path50" inkscape:connector-curvature="0" class="st3" d="M345.1,462c48.3,0,96.3-7.9,142-23.4"/>
			<path id="path54" inkscape:connector-curvature="0" class="st4" d="M345.1,119c10.7,0,21.4-1.7,31.6-5.1L345.1,19V119z"/>
			<path id="path56" inkscape:connector-curvature="0" class="st5" d="M345.1,19l101.3,304"/>
			<path id="path58" inkscape:connector-curvature="0" class="st2" d="M465.5,380.1l43.2-41.9"/>
			<path id="path60" inkscape:connector-curvature="0" class="st6" d="M345.1,19v443"/>
		</g>
		<g id="flowRoot106">
		</g>
		<rect id="rect114" x="316" y="-6.2" class="st7" width="247.5" height="508.3"/>
	</g>
</g>
<rect id="rect72" x="10" y="15" class="st7" width="199" height="471.5"/>
<text transform="matrix(1 0 0 1 44.9308 154.5749)" class="st0 st1">$\theta$</text>
<rect x="29.1" y="17.2" class="st7" width="101.3" height="304"/>
</svg>
