<?xml version="1.0" encoding="utf-8"?>
<!-- Generator: Adobe Illustrator 23.0.1, SVG Export Plug-In . SVG Version: 6.00 Build 0)  -->
<svg version="1.1"
	 id="svg166" inkscape:version="0.92.4 (5da689c313, 2019-01-14)" sodipodi:docname="GHSTali.svg" xmlns:cc="http://creativecommons.org/ns#" xmlns:dc="http://purl.org/dc/elements/1.1/" xmlns:inkscape="http://www.inkscape.org/namespaces/inkscape" xmlns:rdf="http://www.w3.org/1999/02/22-rdf-syntax-ns#" xmlns:sodipodi="http://sodipodi.sourceforge.net/DTD/sodipodi-0.dtd" xmlns:svg="http://www.w3.org/2000/svg"
	 xmlns="http://www.w3.org/2000/svg" xmlns:xlink="http://www.w3.org/1999/xlink" x="0px" y="0px" viewBox="0 0 708.5 231.6"
	 style="enable-background:new 0 0 708.5 231.6;" xml:space="preserve">
<style type="text/css">
	.st0{font-family:'ArialMT';}
	.st1{font-size:13.3333px;}
	.st2{clip-path:url(#SVGID_2_);}
	.st3{fill:none;stroke:#000000;stroke-width:2.5;stroke-miterlimit:10;}
	.st4{fill:none;}
</style>
<sodipodi:namedview  bordercolor="#666666" borderopacity="1" gridtolerance="10" guidetolerance="10" id="namedview168" inkscape:current-layer="svg166" inkscape:cx="303.44679" inkscape:cy="392.29757" inkscape:pageopacity="0" inkscape:pageshadow="2" inkscape:window-height="745" inkscape:window-maximized="1" inkscape:window-width="1366" inkscape:window-x="-8" inkscape:window-y="-8" inkscape:zoom="1.2415352" objecttolerance="10" pagecolor="#ffffff" showgrid="false">
	</sodipodi:namedview>
<text transform="matrix(1 0 0 1 36.5138 72.8205)" class="st0 st1">$\mathbf{T}_1$</text>
<text transform="matrix(1 0 0 1 504.1265 72.8206)" class="st0 st1">$\mathbf{T}_2$</text>
<text transform="matrix(1 0 0 1 256.6429 72.8206)" class="st0 st1">$y$</text>
<text transform="matrix(1 0 0 1 123.5905 186.5142)" class="st0 st1">$a$</text>
<text transform="matrix(1 0 0 1 440.5251 185.5143)" class="st0 st1">$2l-a$</text>
<text transform="matrix(1 0 0 1 338.3862 230.2929)" class="st0 st1">$2l$</text>
<g>
	<defs>
		<rect id="SVGID_1_" x="-22.5" y="-175" width="1294" height="681"/>
	</defs>
	<clipPath id="SVGID_2_">
		<use xlink:href="#SVGID_1_"  style="overflow:visible;"/>
	</clipPath>
	<g id="g164" transform="scale(1,1)" class="st2">
		<g id="g162">
			<path id="path130" d="M22.6,148.6c-0.1,0.1-0.1,0.3-0.1,0.5l0,0C22.5,148.9,22.5,148.8,22.6,148.6z M22.5,149.1L22.5,149.1
				c0,0.2,0,0.3,0.1,0.5l0,0C22.5,149.4,22.5,149.3,22.5,149.1z M26.7,147.9l-1.3,1.3l1.3,1.3h208.2l1.3-1.3l-1.3-1.3H26.7z"/>
			<path id="path128_1_" class="st3" d="M23.7,127.3h654.6"/>
			<path id="path132" d="M22.8,150l5,5c0.5,0.5,1.3,0.5,1.8,0s0.5-1.3,0-1.8l-5-5c-0.5-0.5-1.3-0.5-1.8,0S22.3,149.5,22.8,150z
				 M27.8,143.2l-5,5c-0.5,0.5-0.5,1.3,0,1.8s1.3,0.5,1.8,0l5-5c0.5-0.5,0.5-1.3,0-1.8S28.3,142.7,27.8,143.2z"/>
			<path id="path134" d="M234,148.2l-5,5c-0.5,0.5-0.5,1.3,0,1.8s1.3,0.5,1.8,0l5-5c0.5-0.5,0.5-1.3,0-1.8
				C235.3,147.7,234.5,147.7,234,148.2z M229,145l5,5c0.5,0.5,1.3,0.5,1.8,0c0.5-0.5,0.5-1.3,0-1.8l-5-5c-0.5-0.5-1.3-0.5-1.8,0
				S228.5,144.5,229,145z"/>
			<path id="path136" d="M679.4,148.6c0.1,0.2,0.1,0.3,0.1,0.5C679.5,148.9,679.5,148.8,679.4,148.6z M679.5,149.1
				c0,0.2,0,0.3-0.1,0.5l0,0C679.5,149.4,679.5,149.3,679.5,149.1z M248.9,147.9l-0.1,1.3l0.1,1.2h426.3l1.3-1.3l-1.3-1.3H248.9z"/>
			<path id="path138" d="M679.2,148.2l-5-5c-0.5-0.5-1.3-0.5-1.8,0s-0.5,1.3,0,1.8l5,5c0.5,0.5,1.3,0.5,1.8,0
				S679.6,148.7,679.2,148.2z M674.2,155l5-5c0.5-0.5,0.5-1.3,0-1.8s-1.3-0.5-1.8,0l-5,5c-0.5,0.5-0.5,1.3,0,1.8
				S673.7,155.5,674.2,155z"/>
			<path id="path140" d="M249.8,150l5-5c0.5-0.5,0.5-1.3,0-1.8c-0.5-0.5-1.3-0.5-1.8,0l-5,5c-0.5,0.5-0.5,1.3,0,1.8
				S249.3,150.5,249.8,150z M254.8,153.2l-5-5c-0.5-0.5-1.3-0.5-1.8,0s-0.5,1.3,0,1.8l5,5c0.5,0.5,1.3,0.5,1.8,0
				C255.3,154.5,255.3,153.7,254.8,153.2z"/>
			<path id="path142" d="M679.4,192.3c0.1,0.2,0.1,0.3,0.1,0.5l0,0C679.5,192.6,679.5,192.4,679.4,192.3z M22.6,192.3
				c-0.1,0.1-0.1,0.3-0.1,0.5l0,0C22.5,192.6,22.5,192.4,22.6,192.3z M22.5,192.7c0,0.2,0,0.3,0.1,0.5l0,0
				C22.5,193.1,22.5,192.9,22.5,192.7z M679.5,192.8L679.5,192.8c0,0.2,0,0.3-0.1,0.5l0,0C679.5,193.1,679.5,192.9,679.5,192.8z
				 M26.7,191.5l-1.3,1.3l1.3,1.3h648.5l1.3-1.3l-1.3-1.3H26.7z"/>
			<path id="path144" d="M22.8,193.6l5,5c0.5,0.5,1.3,0.5,1.8,0s0.5-1.3,0-1.8l-5-5c-0.5-0.5-1.3-0.5-1.8,0S22.3,193.1,22.8,193.6z
				 M27.8,186.9l-5,5c-0.5,0.5-0.5,1.3,0,1.8s1.3,0.5,1.8,0l5-5c0.5-0.5,0.5-1.3,0-1.8S28.3,186.4,27.8,186.9z"/>
			<path id="path146" d="M677.4,191.9l-5,5c-0.5,0.5-0.5,1.3,0,1.8s1.3,0.5,1.8,0l5-5c0.5-0.5,0.5-1.3,0-1.8
				S677.9,191.4,677.4,191.9z M672.4,188.6l5,5c0.5,0.5,1.3,0.5,1.8,0s0.5-1.3,0-1.8l-5-5c-0.5-0.5-1.3-0.5-1.8,0
				S671.9,188.1,672.4,188.6z"/>
			<path id="path148" d="M241.9,16.9c-0.2,0-0.4,0-0.6,0.1l-203,101.5l0,0l-1.3-2.7l-13.3,11.4l17.1-3.8l-1.3-2.7l0,0l203-101.5
				c0.6-0.3,0.9-1.1,0.6-1.7C242.8,17.2,242.4,16.9,241.9,16.9z"/>
			<path id="path150" d="M241.9,16.9c-0.6,0-1.1,0.4-1.2,0.9c-0.2,0.7,0.2,1.3,0.9,1.5l419.9,105l-0.7,2.9h17.5l-15.5-8.2l-0.7,2.9
				L242.2,17C242.1,17,242,16.9,241.9,16.9z"/>
			<path id="path152" d="M241.9,18.2l-4.3,17h8.5L241.9,18.2z M240.6,36.8v2.5h2.5v-2.5H240.6z M240.6,42.3v2.5h2.5v-2.5H240.6z
				 M240.6,47.8v2.5h2.5v-2.5H240.6z M240.6,53.3v2.5h2.5v-2.5H240.6z M240.6,58.8v2.5h2.5v-2.5H240.6z M240.6,64.3v2.5h2.5v-2.5
				H240.6z M240.6,69.8v2.5h2.5v-2.5H240.6z M240.6,75.3v2.5h2.5v-2.5H240.6z M240.6,80.8v2.5h2.5v-2.5H240.6z M240.6,86.3v2.5h2.5
				v-2.5H240.6z M240.6,91.8v2.5h2.5v-2.5H240.6z M240.6,97.3v2.5h2.5v-2.5H240.6z M240.6,102.8v2.5h2.5v-2.5H240.6z M240.6,108.3
				v2.5h2.5v-2.5H240.6z M240.6,113.8v2.5h2.5v-2.5H240.6z M240.6,119.3v2.5h2.5v-2.5H240.6z M240.6,124.8v2.5h2.5v-2.5H240.6z"/>
			<path id="path154" d="M28.7,127.3c0,2.8-2.2,5-5,5s-5-2.2-5-5c0-2.8,2.2-5,5-5S28.7,124.5,28.7,127.3z"/>
			<path id="path156" d="M246.9,127.3c0,2.8-2.2,5-5,5c-2.8,0-5-2.2-5-5c0-2.8,2.2-5,5-5C244.7,122.3,246.9,124.5,246.9,127.3z"/>
			<path id="path158" d="M683.3,127.3c0,2.8-2.2,5-5,5s-5-2.2-5-5c0-2.8,2.2-5,5-5S683.3,124.5,683.3,127.3z"/>
			<path id="path160" d="M246.9,18.2c0,2.8-2.2,5-5,5c-2.8,0-5-2.2-5-5c0-2.8,2.2-5,5-5C244.7,13.2,246.9,15.4,246.9,18.2z"/>
		</g>
	</g>
</g>
<rect x="511.8" y="252.9" class="st4" width="3.5" height="3.5"/>
<rect x="26.6" y="13.5" class="st4" width="216.4" height="111.5"/>
</svg>
